<svg xmlns="http://www.w3.org/2000/svg" xmlns:xlink="http://www.w3.org/1999/xlink" width="500" zoomAndPan="magnify" viewBox="0 0 375 374.999991" height="500" preserveAspectRatio="xMidYMid meet" version="1.2"><defs><clipPath id="ba5291717d"><path d="M 37.5 37.5 L 337.5 37.5 L 337.5 337.5 L 37.5 337.5 Z M 37.5 37.5 "/></clipPath><clipPath id="974fe4abf4"><path d="M 187.5 37.5 C 104.65625 37.5 37.5 104.65625 37.5 187.5 C 37.5 270.34375 104.65625 337.5 187.5 337.5 C 270.34375 337.5 337.5 270.34375 337.5 187.5 C 337.5 104.65625 270.34375 37.5 187.5 37.5 Z M 187.5 37.5 "/></clipPath><clipPath id="e49ebdaad7"><path d="M 94 131 L 283 131 L 283 262 L 94 262 Z M 94 131 "/></clipPath><clipPath id="5463e1aadb"><path d="M 89.28125 139.421875 L 280.226562 126.230469 L 289.160156 255.484375 L 98.210938 268.679688 Z M 89.28125 139.421875 "/></clipPath><clipPath id="fdfa7cb045"><path d="M 89.28125 139.421875 L 280.226562 126.230469 L 289.160156 255.484375 L 98.210938 268.679688 Z M 89.28125 139.421875 "/></clipPath></defs><g id="60c06b8d6f"><g clip-rule="nonzero" clip-path="url(#ba5291717d)"><g clip-rule="nonzero" clip-path="url(#974fe4abf4)"><path style=" stroke:none;fill-rule:nonzero;fill:#f5f4e3;fill-opacity:1;" d="M 37.5 37.5 L 337.5 37.5 L 337.5 337.5 L 37.5 337.5 Z M 37.5 37.5 "/></g></g><g clip-rule="nonzero" clip-path="url(#e49ebdaad7)"><g clip-rule="nonzero" clip-path="url(#5463e1aadb)"><g clip-rule="nonzero" clip-path="url(#fdfa7cb045)"><path style=" stroke:none;fill-rule:nonzero;fill:#29528d;fill-opacity:1;" d="M 159.976562 252.863281 C 159.902344 252.066406 159.765625 251.109375 159.574219 249.960938 C 159.183594 248.191406 158.835938 246.855469 158.503906 245.980469 C 158.210938 245.09375 158.023438 244.652344 158.023438 244.652344 C 158.011719 244.609375 158.027344 244.5625 158.050781 244.515625 C 155.5625 243.402344 152.953125 242.238281 150.164062 240.984375 C 147.109375 239.664062 143.921875 238.101562 140.539062 236.433594 C 133.789062 233.230469 126.421875 228.839844 118.832031 223.882812 C 116.882812 222.746094 114.910156 221.523438 112.78125 220.503906 C 111.730469 219.972656 110.664062 219.398438 109.613281 218.96875 C 108.5625 218.515625 107.40625 218.152344 106.246094 217.785156 C 103.882812 217.070312 101.363281 216.453125 98.765625 215.5625 C 97.496094 215.125 96.191406 214.625 94.921875 213.964844 C 95.296875 215.890625 95.796875 217.792969 96.3125 219.695312 C 100.671875 221.039062 104.667969 222.878906 108.320312 224.867188 C 112.570312 227.195312 116.394531 229.71875 120.035156 232.058594 C 123.675781 234.410156 127.117188 236.605469 130.492188 238.46875 C 132.171875 239.398438 133.847656 240.246094 135.480469 241 C 137.179688 241.753906 138.828125 242.476562 140.429688 243.179688 C 142.050781 243.886719 143.632812 244.59375 145.167969 245.269531 C 146.675781 246 148.144531 246.726562 149.5625 247.417969 C 152.429688 248.773438 155.019531 250.222656 157.496094 251.523438 C 158.355469 251.964844 159.160156 252.421875 159.976562 252.863281 Z M 168.007812 257.488281 C 167.863281 256.546875 167.746094 255.273438 167.5 253.660156 C 167.132812 250.617188 166.730469 248.832031 166.59375 248.292969 C 166.515625 248.253906 166.4375 248.214844 166.34375 248.175781 C 164.492188 247.363281 162.511719 246.480469 160.441406 245.574219 C 160.589844 246.613281 160.8125 248.058594 161.144531 249.652344 C 161.386719 251.195312 161.785156 252.574219 161.957031 253.601562 C 161.988281 253.765625 162.015625 253.910156 162.050781 254.050781 C 162.832031 254.488281 163.59375 254.925781 164.34375 255.339844 C 165.621094 256.042969 166.847656 256.773438 168.007812 257.488281 Z M 262.460938 156.535156 C 263.289062 155.910156 263.980469 155.445312 264.574219 155.109375 C 259.777344 153.351562 254.410156 151.460938 248.496094 149.183594 C 242.054688 146.652344 234.878906 143.6875 227.015625 140.726562 C 225.070312 139.972656 223.023438 139.21875 220.917969 138.46875 C 218.8125 137.707031 216.660156 136.941406 214.460938 136.148438 C 210.203125 134.664062 206.097656 132.363281 201.816406 131.722656 C 199.792969 133.222656 197.828125 134.6875 195.941406 136.085938 C 193.558594 137.722656 191.265625 139.296875 189.085938 140.789062 C 184.75 143.777344 180.75 146.351562 177.332031 148.859375 C 173.859375 151.351562 170.765625 153.558594 168.027344 155.527344 C 167.109375 156.167969 166.257812 156.785156 165.421875 157.375 C 165.3125 157.484375 165.179688 157.601562 165 157.761719 C 164.453125 158.242188 163.554688 158.964844 162.277344 159.777344 C 161.625 160.175781 160.921875 160.695312 160.117188 161.300781 C 159.320312 161.875 158.417969 162.527344 157.414062 163.246094 C 156.417969 163.949219 155.316406 164.730469 154.113281 165.585938 C 152.898438 166.4375 151.582031 167.332031 150.207031 168.414062 C 148.816406 169.472656 147.324219 170.609375 145.714844 171.832031 C 144.109375 173.050781 142.355469 174.320312 140.578125 175.796875 C 136.972656 178.683594 132.882812 181.898438 128.390625 185.695312 C 123.808594 189.367188 119.0625 193.742188 113.339844 198.328125 C 111.898438 199.46875 110.460938 200.65625 108.828125 201.71875 C 107.222656 202.8125 105.652344 204 103.804688 204.984375 C 101.996094 205.96875 100.203125 206.839844 98.523438 207.871094 C 97.339844 208.589844 96.210938 209.394531 95.292969 210.316406 C 96.65625 211.191406 98.234375 211.851562 99.851562 212.394531 C 102.25 213.222656 104.75 213.851562 107.207031 214.601562 C 108.453125 214.988281 109.679688 215.386719 110.902344 215.902344 C 112.121094 216.421875 113.21875 217.015625 114.304688 217.5625 C 116.519531 218.640625 118.546875 219.90625 120.558594 221.101562 C 128.332031 226.214844 135.222656 230.390625 141.921875 233.6875 C 145.238281 235.351562 148.371094 236.945312 151.414062 238.328125 C 154.277344 239.667969 156.976562 240.933594 159.523438 242.128906 C 159.613281 241.976562 159.710938 241.816406 159.835938 241.660156 C 160.242188 241.144531 160.765625 240.523438 161.417969 239.875 C 161.417969 239.875 161.691406 239.636719 162.25 239.164062 C 162.523438 238.933594 162.875 238.625 163.285156 238.277344 C 163.71875 237.957031 164.21875 237.578125 164.785156 237.144531 C 165.921875 236.296875 167.378906 235.304688 169.09375 234.140625 C 169.945312 233.542969 170.859375 232.929688 171.804688 232.214844 C 172.273438 231.855469 172.761719 231.476562 173.253906 231.09375 C 173.75 230.679688 174.253906 230.25 174.78125 229.808594 C 178.976562 226.238281 184.199219 221.796875 190.40625 216.53125 C 193.542969 213.941406 196.929688 211.128906 200.570312 208.125 C 202.386719 206.625 204.261719 205.070312 206.203125 203.460938 C 208.121094 201.839844 210.101562 200.164062 212.144531 198.425781 C 216.222656 194.964844 220.050781 191.699219 223.648438 188.648438 C 227.191406 185.546875 230.488281 182.628906 233.609375 179.996094 C 235.167969 178.667969 236.636719 177.375 238.082031 176.183594 C 239.539062 175.003906 240.9375 173.867188 242.261719 172.78125 C 244.886719 170.574219 247.402344 168.75 249.597656 167.070312 C 250.703125 166.230469 251.738281 165.449219 252.699219 164.714844 C 253.632812 163.984375 254.496094 163.292969 255.304688 162.660156 C 256.910156 161.390625 258.1875 160.183594 259.242188 159.304688 C 261.375 157.46875 262.460938 156.535156 262.460938 156.535156 Z M 269.351562 159.40625 C 270.382812 158.628906 271.210938 158.085938 271.898438 157.722656 C 270.265625 157.125 268.515625 156.507812 266.671875 155.863281 C 266.171875 156.488281 265.277344 157.300781 263.910156 158.332031 C 263.910156 158.332031 262.496094 159.5 259.933594 161.597656 C 259.292969 162.128906 258.582031 162.722656 257.804688 163.378906 C 257.011719 164.027344 256.101562 164.691406 255.148438 165.425781 C 253.230469 166.898438 251.097656 168.414062 248.695312 170.1875 C 246.28125 171.894531 243.785156 173.949219 241.054688 176.101562 C 238.3125 178.226562 235.503906 180.679688 232.5 183.171875 C 229.519531 185.6875 226.453125 188.40625 223.21875 191.160156 C 219.972656 193.90625 216.609375 196.75 213.179688 199.648438 C 206.34375 205.496094 199.714844 210.949219 193.738281 215.988281 C 190.726562 218.484375 187.917969 220.929688 185.304688 223.230469 C 182.683594 225.515625 180.234375 227.660156 177.988281 229.617188 C 176.882812 230.601562 175.820312 231.53125 174.808594 232.417969 C 173.765625 233.273438 172.75 234.105469 171.785156 234.789062 C 169.871094 236.171875 168.214844 237.363281 166.863281 238.34375 C 165.574219 239.34375 164.566406 240.105469 163.964844 240.691406 C 163.332031 241.261719 163.003906 241.5625 163.003906 241.5625 C 162.410156 242.140625 161.925781 242.648438 161.472656 243.039062 C 163.558594 244.011719 165.574219 244.964844 167.4375 245.835938 C 167.546875 245.886719 167.632812 245.9375 167.738281 245.988281 C 167.988281 245.414062 168.347656 244.785156 168.835938 244.117188 C 168.835938 244.117188 168.898438 244.042969 169.011719 243.894531 C 169.121094 243.738281 169.289062 243.515625 169.535156 243.226562 C 170.011719 242.664062 170.757812 241.839844 171.796875 240.84375 C 172.84375 239.84375 174.203125 238.691406 175.851562 237.394531 C 176.667969 236.761719 177.554688 236.066406 178.511719 235.320312 C 179.441406 234.5625 180.414062 233.703125 181.472656 232.828125 C 185.671875 229.25 190.90625 224.8125 197.132812 219.539062 C 200.277344 216.933594 203.675781 214.121094 207.324219 211.113281 C 209.148438 209.601562 211.027344 208.046875 212.96875 206.433594 C 214.894531 204.804688 216.878906 203.128906 218.917969 201.394531 C 223.003906 197.925781 226.851562 194.65625 230.441406 191.597656 C 234.003906 188.476562 237.304688 185.558594 240.433594 182.910156 C 241.992188 181.589844 243.460938 180.296875 244.917969 179.097656 C 246.375 177.90625 247.765625 176.773438 249.101562 175.691406 C 251.734375 173.480469 254.25 171.644531 256.453125 169.960938 C 257.554688 169.128906 258.597656 168.34375 259.566406 167.609375 C 260.5 166.878906 261.367188 166.175781 262.171875 165.542969 C 263.777344 164.28125 265.054688 163.070312 266.117188 162.183594 C 268.253906 160.335938 269.351562 159.40625 269.351562 159.40625 Z M 282.257812 164.679688 C 282.363281 164.460938 282.378906 164.3125 282.355469 164.136719 C 282.265625 163.761719 281.785156 163.117188 281.132812 162.570312 C 280.414062 162.054688 279.738281 161.441406 278.871094 160.957031 C 277.398438 160.019531 275.667969 159.214844 273.769531 158.453125 C 273.308594 159.109375 272.382812 160.011719 270.789062 161.210938 C 270.789062 161.210938 269.375 162.382812 266.8125 164.476562 C 266.171875 165.023438 265.453125 165.617188 264.671875 166.273438 C 263.882812 166.917969 262.972656 167.585938 262.015625 168.304688 C 260.097656 169.792969 257.941406 171.308594 255.558594 173.082031 C 253.128906 174.796875 250.621094 176.855469 247.894531 179.015625 C 245.144531 181.148438 242.335938 183.609375 239.324219 186.101562 C 236.34375 188.660156 233.246094 191.339844 230.011719 194.117188 C 226.753906 196.863281 223.398438 199.699219 219.953125 202.613281 C 213.109375 208.476562 206.472656 213.925781 200.476562 218.980469 C 197.445312 221.484375 194.652344 223.945312 192.03125 226.230469 C 189.394531 228.535156 186.941406 230.675781 184.703125 232.640625 C 182.4375 234.578125 180.460938 236.398438 178.585938 237.898438 C 176.738281 239.386719 175.1875 240.667969 174.003906 241.785156 C 172.824219 242.890625 171.996094 243.816406 171.46875 244.46875 C 170.9375 245.105469 170.707031 245.484375 170.707031 245.484375 C 170.308594 246.03125 169.980469 246.507812 169.703125 246.945312 C 171.144531 247.632812 172.519531 248.230469 173.855469 248.621094 C 175.847656 249.214844 177.730469 249.335938 179.484375 249.125 C 181.210938 248.921875 182.6875 248.316406 183.988281 247.605469 C 186.574219 246.113281 188.46875 244.410156 190.089844 243.269531 C 192.753906 241.320312 194.953125 239.914062 197.417969 237.703125 C 200.066406 235.332031 202.644531 232.933594 205.121094 230.382812 C 206.953125 228.488281 208.933594 226.34375 211.164062 224.105469 C 212.296875 223 213.488281 221.859375 214.738281 220.714844 C 215.976562 219.617188 217.25 218.480469 218.570312 217.320312 C 223.832031 212.664062 229.636719 207.578125 235.808594 202.320312 C 238.890625 199.699219 241.917969 197.148438 244.828125 194.675781 C 247.726562 192.199219 250.53125 189.773438 253.15625 187.472656 C 255.789062 185.160156 258.292969 182.972656 260.695312 180.941406 C 263.0625 178.882812 265.375 177.082031 267.492188 175.433594 C 268.011719 175.027344 268.527344 174.625 269.039062 174.238281 L 269.40625 173.941406 L 269.644531 173.773438 L 269.832031 173.644531 C 270.089844 173.472656 270.34375 173.300781 270.585938 173.136719 C 271.59375 172.488281 272.519531 171.839844 273.4375 171.296875 C 273.984375 170.96875 274.492188 170.671875 274.992188 170.367188 C 276.355469 169.394531 277.996094 168.207031 280.015625 166.761719 C 280.589844 166.335938 281.179688 165.878906 281.6875 165.398438 C 281.914062 165.160156 282.152344 164.898438 282.257812 164.679688 Z M 271.097656 175.777344 C 271.097656 175.777344 271 175.859375 270.957031 175.894531 L 270.613281 176.199219 C 270.136719 176.625 269.664062 177.046875 269.175781 177.492188 C 267.199219 179.246094 265.019531 181.136719 262.761719 183.273438 C 260.464844 185.410156 258.023438 187.675781 255.453125 190.066406 C 252.867188 192.460938 250.144531 194.917969 247.257812 197.433594 C 244.347656 199.941406 241.351562 202.519531 238.28125 205.152344 C 232.085938 210.398438 226.195312 215.386719 220.835938 219.925781 C 219.484375 221.058594 218.164062 222.152344 216.890625 223.210938 C 215.636719 224.277344 214.457031 225.320312 213.316406 226.355469 C 211.03125 228.484375 208.917969 230.472656 206.984375 232.28125 C 202.125 236.742188 197.03125 241.308594 191.578125 245.027344 C 186.191406 248.703125 179.910156 252.695312 173.21875 250.902344 C 171.742188 250.523438 170.289062 249.945312 168.828125 249.300781 C 168.839844 250.347656 168.90625 251.824219 169.089844 253.453125 C 169.335938 254.964844 169.589844 256.351562 169.9375 257.296875 C 170.25 258.257812 170.480469 258.84375 170.480469 258.84375 C 170.492188 258.886719 170.472656 258.933594 170.457031 258.980469 C 173.839844 261 176.980469 262.25 179.488281 261.679688 C 182.125 261.152344 184.179688 259.859375 185.644531 258.886719 C 186.339844 258.414062 186.925781 257.996094 187.433594 257.628906 C 188.5 256.628906 189.699219 255.417969 191.046875 254.042969 C 192.863281 252.265625 194.902344 250.328125 197.199219 248.164062 C 201.75 243.839844 207.261719 238.832031 213.25 233.027344 C 214.769531 231.605469 216.277344 230.109375 217.902344 228.65625 C 219.542969 227.195312 221.210938 225.707031 222.902344 224.199219 C 226.289062 221.15625 229.839844 218.097656 233.480469 214.984375 C 240.753906 208.714844 247.636719 202.777344 253.90625 197.277344 C 257.046875 194.550781 260.003906 191.941406 262.902344 189.597656 C 264.34375 188.425781 265.699219 187.253906 267.078125 186.210938 C 268.46875 185.164062 269.792969 184.175781 271.054688 183.214844 C 272.335938 182.265625 273.484375 181.351562 274.757812 180.558594 C 275.96875 179.789062 277.089844 179.109375 278.09375 178.421875 C 280.96875 176.480469 282.050781 173.761719 282.210938 170.601562 C 282.253906 169.640625 282.210938 168.628906 282.101562 167.597656 C 281.765625 167.847656 281.425781 168.066406 281.097656 168.296875 C 280.394531 168.742188 279.742188 169.148438 279.117188 169.523438 C 279.054688 169.585938 279 169.632812 278.941406 169.675781 C 277.769531 170.644531 276.324219 171.769531 274.660156 173.007812 C 273.808594 173.625 272.9375 174.347656 271.996094 175.066406 C 271.746094 175.25 271.515625 175.445312 271.273438 175.628906 L 271.097656 175.777344 "/></g></g></g></g></svg>